<svg xmlns="http://www.w3.org/2000/svg" viewBox="0 0 950 580" width="950" height="580" style="background:#ffffff; font-family: system-ui, -apple-system, sans-serif;">
  <rect width="950" height="580" fill="#ffffff" rx="12"/>
  <text x="475" y="42" text-anchor="middle" font-size="18" font-weight="bold" fill="#0f172a">BIỂU ĐỒ PARETO — P7: Nhân sự & Đào tạo</text>
  <text x="475" y="65" text-anchor="middle" font-size="13" fill="#64748b">Quy tắc 80/20: Top vấn đề chiếm ~80% chi phí lãng phí</text>
  <text x="475" y="85" text-anchor="middle" font-size="12" fill="#94a3b8">Tổng chi phí ảnh hưởng: 1.7 tỷ VND/tháng (ước tính)</text>
  
  <line x1="120" y1="366.0" x2="820" y2="366.0" stroke="#e2e8f0" stroke-dasharray="4,4" stroke-width="1"/>
  <line x1="120" y1="302.0" x2="820" y2="302.0" stroke="#e2e8f0" stroke-dasharray="4,4" stroke-width="1"/>
  <line x1="120" y1="238.0" x2="820" y2="238.0" stroke="#e2e8f0" stroke-dasharray="4,4" stroke-width="1"/>
  <line x1="120" y1="174.0" x2="820" y2="174.0" stroke="#e2e8f0" stroke-dasharray="4,4" stroke-width="1"/>
  <line x1="120" y1="110.0" x2="820" y2="110.0" stroke="#e2e8f0" stroke-dasharray="4,4" stroke-width="1"/>
  <line x1="120" y1="110" x2="120" y2="430" stroke="#475569" stroke-width="2"/>
  <line x1="820" y1="110" x2="820" y2="430" stroke="#475569" stroke-width="2"/>
  <line x1="120" y1="430" x2="820" y2="430" stroke="#475569" stroke-width="2"/>
  <text x="40" y="270.0" text-anchor="middle" font-size="13" font-weight="bold" fill="#1e3a8a" transform="rotate(-90 40 270.0)">Tỷ lệ Lãng phí (%)</text>
  <text x="910" y="270.0" text-anchor="middle" font-size="13" font-weight="bold" fill="#b91c1c" transform="rotate(90 910 270.0)">Tỷ lệ Tích lũy (%)</text>
  
  <text x="110" y="434.0" text-anchor="end" font-size="12" fill="#334155" font-weight="600">0%</text>
  <text x="830" y="434.0" text-anchor="start" font-size="12" fill="#b91c1c" font-weight="600">0%</text>
  <text x="110" y="370.0" text-anchor="end" font-size="12" fill="#334155" font-weight="600">20%</text>
  <text x="830" y="370.0" text-anchor="start" font-size="12" fill="#b91c1c" font-weight="600">20%</text>
  <text x="110" y="306.0" text-anchor="end" font-size="12" fill="#334155" font-weight="600">40%</text>
  <text x="830" y="306.0" text-anchor="start" font-size="12" fill="#b91c1c" font-weight="600">40%</text>
  <text x="110" y="242.0" text-anchor="end" font-size="12" fill="#334155" font-weight="600">60%</text>
  <text x="830" y="242.0" text-anchor="start" font-size="12" fill="#b91c1c" font-weight="600">60%</text>
  <text x="110" y="178.0" text-anchor="end" font-size="12" fill="#334155" font-weight="600">80%</text>
  <text x="830" y="178.0" text-anchor="start" font-size="12" fill="#b91c1c" font-weight="600">80%</text>
  <text x="110" y="114.0" text-anchor="end" font-size="12" fill="#334155" font-weight="600">100%</text>
  <text x="830" y="114.0" text-anchor="start" font-size="12" fill="#b91c1c" font-weight="600">100%</text>
  <line x1="120" y1="174.0" x2="820" y2="174.0" stroke="#10b981" stroke-width="2.5" stroke-dasharray="6,4"/>
  <rect x="660" y="154.0" width="150" height="26" fill="#ecfdf5" rx="4" stroke="#10b981" stroke-width="1"/>
  <text x="735" y="171.0" text-anchor="middle" font-size="12" font-weight="bold" fill="#047857">Ngưỡng Pareto 80%</text>
  
  <rect x="140.0" y="317.05882352941177" width="100" height="112.94117647058825" fill="#3b82f6" rx="4" stroke="#1d4ed8" stroke-width="1.5"/>
  <text x="190.0" y="336.05882352941177" text-anchor="middle" font-size="13" font-weight="bold" fill="#ffffff">35.3%</text>
  <text x="190.0" y="450" text-anchor="middle" font-size="11" font-weight="600" fill="#1e293b">Finance approval 5-1…</text>
  <text x="190.0" y="465" text-anchor="middle" font-size="10" fill="#64748b">0.6 tỷ</text>
  <rect x="280.0" y="345.29411764705884" width="100" height="84.70588235294117" fill="#3b82f6" rx="4" stroke="#1d4ed8" stroke-width="1.5"/>
  <text x="330.0" y="364.29411764705884" text-anchor="middle" font-size="13" font-weight="bold" fill="#ffffff">26.5%</text>
  <text x="330.0" y="450" text-anchor="middle" font-size="11" font-weight="600" fill="#1e293b">Low completion rate …</text>
  <text x="330.0" y="465" text-anchor="middle" font-size="10" fill="#64748b">0.5 tỷ</text>
  <rect x="420.0" y="373.52941176470586" width="100" height="56.47058823529412" fill="#3b82f6" rx="4" stroke="#1d4ed8" stroke-width="1.5"/>
  <text x="470.0" y="392.52941176470586" text-anchor="middle" font-size="13" font-weight="bold" fill="#ffffff">17.6%</text>
  <text x="470.0" y="450" text-anchor="middle" font-size="11" font-weight="600" fill="#1e293b">Manual course assign</text>
  <text x="470.0" y="465" text-anchor="middle" font-size="10" fill="#64748b">0.3 tỷ</text>
  <rect x="560.0" y="392.3529411764706" width="100" height="37.64705882352941" fill="#3b82f6" rx="4" stroke="#1d4ed8" stroke-width="1.5"/>
  <text x="610.0" y="411.3529411764706" text-anchor="middle" font-size="13" font-weight="bold" fill="#ffffff">11.8%</text>
  <text x="610.0" y="450" text-anchor="middle" font-size="11" font-weight="600" fill="#1e293b">Compliance cert 48-72h</text>
  <text x="610.0" y="465" text-anchor="middle" font-size="10" fill="#64748b">0.2 tỷ</text>
  <rect x="700.0" y="401.7647058823529" width="100" height="28.23529411764706" fill="#3b82f6" rx="4" stroke="#1d4ed8" stroke-width="1.5"/>
  <text x="750.0" y="391.7647058823529" text-anchor="middle" font-size="13" font-weight="bold" fill="#1e3a8a">8.8%</text>
  <text x="750.0" y="450" text-anchor="middle" font-size="11" font-weight="600" fill="#1e293b">No skill gap analysis</text>
  <text x="750.0" y="465" text-anchor="middle" font-size="10" fill="#64748b">0.1 tỷ</text>
  <path d="M 190.0 317.05882352941177 L 330.0 232.35294117647058 L 470.0 175.88235294117646 L 610.0 138.23529411764702 L 750.0 110.0" fill="none" stroke="#ef4444" stroke-width="3.5" stroke-linejoin="round"/>
  
  <circle cx="190.0" cy="317.05882352941177" r="6" fill="#ef4444" stroke="#ffffff" stroke-width="2"/>
  <rect x="168.0" y="281.05882352941177" width="44" height="20" fill="#fef2f2" rx="4" stroke="#ef4444" stroke-width="1"/>
  <text x="190.0" y="295.05882352941177" text-anchor="middle" font-size="11" font-weight="bold" fill="#991b1b">35%</text>
  <circle cx="330.0" cy="232.35294117647058" r="6" fill="#ef4444" stroke="#ffffff" stroke-width="2"/>
  <rect x="308.0" y="196.35294117647058" width="44" height="20" fill="#fef2f2" rx="4" stroke="#ef4444" stroke-width="1"/>
  <text x="330.0" y="210.35294117647058" text-anchor="middle" font-size="11" font-weight="bold" fill="#991b1b">62%</text>
  <circle cx="470.0" cy="175.88235294117646" r="6" fill="#ef4444" stroke="#ffffff" stroke-width="2"/>
  <rect x="448.0" y="139.88235294117646" width="44" height="20" fill="#fef2f2" rx="4" stroke="#ef4444" stroke-width="1"/>
  <text x="470.0" y="153.88235294117646" text-anchor="middle" font-size="11" font-weight="bold" fill="#991b1b">79%</text>
  <circle cx="610.0" cy="138.23529411764702" r="6" fill="#ef4444" stroke="#ffffff" stroke-width="2"/>
  <rect x="588.0" y="102.23529411764702" width="44" height="20" fill="#fef2f2" rx="4" stroke="#ef4444" stroke-width="1"/>
  <text x="610.0" y="116.23529411764702" text-anchor="middle" font-size="11" font-weight="bold" fill="#991b1b">91%</text>
  <circle cx="750.0" cy="110.0" r="6" fill="#ef4444" stroke="#ffffff" stroke-width="2"/>
  <rect x="728.0" y="92" width="44" height="20" fill="#fef2f2" rx="4" stroke="#ef4444" stroke-width="1"/>
  <text x="750.0" y="106" text-anchor="middle" font-size="11" font-weight="bold" fill="#991b1b">100%</text>
  <rect x="275" y="510" width="400" height="45" fill="#f8fafc" rx="8" stroke="#cbd5e1" stroke-width="1"/>
  <rect x="295" y="527" width="18" height="12" fill="#3b82f6" stroke="#1d4ed8"/>
  <text x="320" y="537" font-size="12" fill="#334155" font-weight="600">Tỷ lệ lãng phí theo nhóm (%)</text>
  <line x1="500" y1="533" x2="525" y2="533" stroke="#ef4444" stroke-width="3"/>
  <circle cx="512.5" cy="533" r="4" fill="#ef4444"/>
  <text x="535" y="537" font-size="12" fill="#334155" font-weight="600">Tỷ lệ tích lũy (%)</text>
</svg>